<svg width="18" height="18" viewBox="0 0 18 18" fill="none" xmlns="http://www.w3.org/2000/svg">
<path id="Icon" d="M1.9428 7.37763C3.80501 11.4355 7.11859 14.6617 11.2383 16.4107L11.8986 16.7051C13.4095 17.3786 15.1856 16.8669 16.1071 15.4927L16.9701 14.2058C17.2506 13.7874 17.1652 13.2238 16.7732 12.9075L13.8466 10.5452C13.4167 10.1983 12.7846 10.2791 12.4557 10.7231L11.5503 11.9454C9.22713 10.7988 7.34096 8.91172 6.19497 6.58737L7.41667 5.68155C7.86041 5.35254 7.94119 4.72011 7.59439 4.29002L5.23323 1.36181C4.91708 0.969745 4.35397 0.884223 3.93577 1.16477L2.64062 2.03362C1.25849 2.96082 0.749909 4.75243 1.4386 6.26804L1.94204 7.37598L1.9428 7.37763Z" stroke="white" stroke-width="1.4" stroke-linejoin="round"/>
</svg>
