<svg width="25" height="24" viewBox="0 0 25 24" fill="none" xmlns="http://www.w3.org/2000/svg">
<path id="language" d="M12.1341 0.0996242C15.2861 0.104608 18.3071 1.3632 20.5323 3.59852C22.7576 5.83384 24.005 8.86278 24 12.019C23.995 15.1752 22.7381 18.2002 20.5058 20.4285C18.2735 22.6568 15.2486 23.9058 12.0966 23.9008C10.5359 23.8984 8.99094 23.5881 7.54997 22.9877C6.109 22.3874 4.80023 21.5087 3.69839 20.4019C1.4731 18.1666 0.22575 15.1377 0.230728 11.9814C0.235705 8.82519 1.49261 5.80021 3.72493 3.57194C5.95725 1.34367 8.98213 0.0946402 12.1341 0.0996242ZM15.5014 10.9854C15.5142 10.9597 15.5261 10.9459 15.5261 10.933C15.5261 10.8618 15.5261 10.7906 15.5261 10.7204C15.4642 9.28355 15.2577 7.85666 14.9097 6.46138C14.6558 5.31838 14.2052 4.22832 13.5782 3.23995C13.342 2.89634 13.0587 2.5877 12.7367 2.32307C12.5698 2.16684 12.3503 2.07928 12.1218 2.07781C11.8934 2.07634 11.6728 2.16109 11.5039 2.31516C11.2832 2.47966 11.0841 2.67141 10.9113 2.88586C10.3797 3.58532 9.97234 4.37126 9.70722 5.20921C9.19057 6.74471 8.87288 8.34028 8.76194 9.95679C8.7333 10.298 8.72243 10.6402 8.70366 10.9874L15.5014 10.9854ZM8.71651 13.0259C8.71651 13.1634 8.71058 13.2742 8.71651 13.3839C8.78008 14.7332 8.97091 16.0734 9.28644 17.3867C9.53815 18.5877 10.0021 19.7339 10.6564 20.7714C10.898 21.1206 11.1877 21.434 11.5168 21.7021C11.6817 21.8573 11.8994 21.9437 12.1257 21.9437C12.352 21.9437 12.5698 21.8573 12.7347 21.7021C13.0015 21.4937 13.2399 21.2513 13.4439 20.9811C13.9474 20.2721 14.333 19.4861 14.5857 18.6538C15.0737 17.151 15.3743 15.5936 15.4806 14.017C15.5073 13.6906 15.5182 13.3642 15.5369 13.0279L8.71651 13.0259ZM21.9741 10.9844C21.7793 9.15414 21.082 7.41365 19.9595 5.95603C18.837 4.4984 17.3332 3.3806 15.615 2.72662C16.8211 5.31494 17.4693 8.12861 17.5174 10.9844H21.9741ZM21.9613 13.0299H17.5164C17.468 15.8776 16.8232 18.6834 15.6239 21.2659C17.3388 20.6163 18.8396 19.5019 19.9584 18.0472C21.0772 16.5926 21.77 14.8551 21.9593 13.0289L21.9613 13.0299ZM6.72322 10.9854C6.77042 8.1397 7.41348 5.33557 8.61082 2.75431C6.89615 3.4007 5.39583 4.51374 4.27891 5.96803C3.162 7.42232 2.47288 9.16006 2.2892 10.9854H6.72322ZM2.26747 13.0279C2.4618 14.8575 3.15877 16.5973 4.281 18.0542C5.40322 19.511 6.90676 20.6279 8.62464 21.2808C7.41955 18.6939 6.7717 15.882 6.72322 13.0279H2.26747Z" fill="white" stroke="black" stroke-width="0.2" stroke-linecap="round" stroke-linejoin="round"/>
</svg>
