<svg width="195" height="71" viewBox="0 0 195 71" fill="none" xmlns="http://www.w3.org/2000/svg">
<g id="Frame" clip-path="url(#clip0_1608_402)">
<path id="Vector" d="M80.5093 11.1428H83.0675V29.4851H93.5987V31.8792H80.5093V11.1428Z" fill="white"/>
<path id="Vector_2" d="M95.4575 16.3108H97.8882V31.8792H95.4544L95.4575 16.3108ZM98.2737 12.8001C98.2737 13.1278 98.1798 13.4482 98.0039 13.7208C97.828 13.9933 97.578 14.2057 97.2855 14.3311C96.9929 14.4566 96.6711 14.4894 96.3605 14.4255C96.05 14.3615 95.7648 14.2037 95.5409 13.9719C95.317 13.7401 95.1646 13.4448 95.1028 13.1234C95.041 12.8019 95.0727 12.4687 95.1939 12.1659C95.315 11.863 95.5202 11.6042 95.7835 11.4221C96.0467 11.24 96.3562 11.1428 96.6728 11.1428C97.0974 11.1428 97.5046 11.3174 97.8048 11.6282C98.105 11.939 98.2737 12.3605 98.2737 12.8001ZM130.601 12.8001C130.601 13.1278 130.507 13.4482 130.331 13.7208C130.155 13.9933 129.905 14.2057 129.613 14.3311C129.32 14.4566 128.998 14.4894 128.688 14.4255C128.377 14.3615 128.092 14.2037 127.868 13.9719C127.644 13.7401 127.492 13.4448 127.43 13.1234C127.368 12.8019 127.4 12.4687 127.521 12.1659C127.642 11.863 127.848 11.6042 128.111 11.4221C128.374 11.24 128.684 11.1428 129 11.1428C129.425 11.1428 129.832 11.3174 130.132 11.6282C130.432 11.939 130.601 12.3605 130.601 12.8001Z" fill="white"/>
<path id="Vector_3" d="M101.087 16.3108H103.524L103.462 20.4394H103.493C104.133 17.7621 106.051 16.0598 108.758 16.0598C111.711 16.0598 113.66 17.6688 114.024 20.1562H114.055C114.574 17.6656 116.52 16.0598 119.339 16.0598C122.759 16.0598 124.726 18.3928 124.726 22.0162V31.8792H122.292V22.5472C122.292 19.9728 121.074 18.3252 118.671 18.3252C115.901 18.3252 114.133 20.4362 114.133 24.0306V31.8792H111.699V22.4571C111.699 19.9374 110.456 18.3285 108.047 18.3285C105.277 18.3285 103.511 20.4716 103.511 24.1594V31.8824H101.074L101.087 16.3108Z" fill="white"/>
<path id="Vector_4" d="M127.785 16.3108H130.216V31.8792H127.782L127.785 16.3108Z" fill="white"/>
<path id="Vector_5" d="M134.176 26.177V18.5183H131.689V16.3108H133.697C134.185 16.3108 134.368 16.0598 134.427 15.2392L134.552 12.7839H136.619V16.3237H142.071V18.5312H136.61V26.0193C136.61 28.3813 137.343 29.8004 139.594 29.8004C140.386 29.8072 141.174 29.6988 141.937 29.4786V31.6217C141.113 31.9009 140.249 32.0284 139.382 31.9982C135.73 32.0047 134.176 29.6105 134.176 26.177Z" fill="white"/>
<path id="Vector_6" d="M144.312 10.0422H146.749V31.8792H144.312V10.0422Z" fill="white"/>
<path id="Vector_7" d="M163.55 24.6002H151.769C151.922 27.9083 153.871 29.9903 156.824 29.9903C159.351 29.9903 161.085 28.6645 161.3 26.6179H163.55C163.398 29.9903 160.753 32.1302 156.792 32.1302C152.257 32.1302 149.332 29.0442 149.332 24.2205C149.332 19.2424 152.223 16.0598 156.73 16.0598C161.02 16.0598 163.547 18.8015 163.547 23.4353L163.55 24.6002ZM161.3 22.5826C161.3 19.8409 159.655 18.203 156.792 18.203C154.113 18.203 152.319 19.8119 151.863 22.7724H161.3V22.5826Z" fill="white"/>
<path id="Vector_8" d="M165.378 26.679H167.628C167.628 28.7611 168.847 29.9903 171.98 29.9903C175.113 29.9903 176.578 29.0249 176.578 27.3419C176.604 27.0065 176.529 26.6708 176.361 26.3822C176.194 26.0935 175.943 25.8665 175.645 25.733C174.946 25.3887 173.36 25.1988 171.505 25.0089C169.04 24.7901 167.548 24.4748 166.634 23.7797C165.813 23.1361 165.39 22.0163 165.39 20.8835C165.39 17.9552 167.977 16.0566 171.996 16.0566C176.5 16.0566 178.387 18.1065 178.387 21.6044H176.136C176.105 19.2714 174.765 18.1998 172.095 18.1998C169.509 18.1998 167.834 19.1652 167.834 20.7194C167.834 21.363 167.924 22.1064 168.807 22.4861C169.537 22.8079 171.029 22.9913 173.009 23.2101C175.353 23.4611 176.509 23.6832 177.544 24.2817C178.579 24.8802 179.018 26.0709 179.018 27.2486C179.018 30.3057 176.584 32.1302 172.014 32.1302C166.96 32.1302 165.378 29.6749 165.378 26.679Z" fill="white"/>
<path id="Vector_9" d="M180.839 26.6791H183.092C183.092 28.7611 184.311 29.9903 187.444 29.9903C190.577 29.9903 192.042 29.0249 192.042 27.3419C192.068 27.0065 191.993 26.6708 191.825 26.3822C191.658 26.0935 191.407 25.8665 191.109 25.733C190.407 25.3887 188.824 25.1988 186.969 25.0089C184.504 24.7901 183.012 24.4748 182.098 23.7797C181.274 23.1361 180.854 22.0163 180.854 20.8835C180.854 17.9552 183.444 16.0566 187.46 16.0566C191.967 16.0566 193.854 18.1065 193.854 21.6044H191.6C191.569 19.2714 190.232 18.1998 187.559 18.1998C184.97 18.1998 183.298 19.1652 183.298 20.7194C183.298 21.363 183.388 22.1064 184.271 22.4861C185.001 22.8079 186.493 22.9913 188.473 23.2101C190.817 23.4611 191.973 23.6832 193.008 24.2817C194.043 24.8802 194.5 26.0773 194.5 27.2454C194.5 30.3024 192.063 32.127 187.497 32.127C182.437 32.1302 180.839 29.6749 180.839 26.6791Z" fill="white"/>
<path id="Vector_10" d="M79.9468 49.3976C79.9468 42.8749 84.0872 38.6819 90.0211 38.6819C95.1064 38.6819 98.821 41.9577 98.821 46.7492C98.821 46.8136 98.821 47.0968 98.7899 47.5055H96.4461V46.9391C96.4461 43.4412 93.6766 41.076 90.0211 41.076C85.6693 41.076 82.505 44.3229 82.505 49.3976C82.505 54.4723 85.8216 57.6516 90.0211 57.6516C93.7045 57.6516 96.5487 55.354 96.5487 52.0428V51.6663H98.9235V52.1715C98.9235 56.8343 95.1499 60.049 90.0335 60.049C84.2115 60.049 79.9468 55.8882 79.9468 49.3976Z" fill="white"/>
<path id="Vector_11" d="M100.891 55.2575C100.891 53.0532 102.38 51.1611 106.399 51.1611H112.517V50.0284C112.517 47.3478 110.997 46.0575 107.922 46.0575C105.153 46.0575 103.63 47.129 103.63 49.24C103.628 49.4293 103.639 49.6184 103.661 49.8063H101.407C101.369 49.4925 101.348 49.1766 101.345 48.8603C101.345 45.7711 103.903 43.9143 107.981 43.9143C112.395 43.9143 114.953 46.183 114.953 50.2472V59.7337H112.517C112.548 59.0096 112.61 57.5584 112.641 56.0459H112.61C112.091 58.4401 110.204 59.9847 106.461 59.9847C103.051 59.9847 100.891 58.1891 100.891 55.2575ZM112.517 53.2109V52.9889H106.611C104.142 52.9889 103.17 53.7451 103.17 55.2414C103.17 56.8182 104.568 57.8158 106.943 57.8158C110.356 57.8415 112.517 56.0459 112.517 53.2109Z" fill="white"/>
<path id="Vector_12" d="M117.844 44.1653H120.269L120.207 48.6704H120.238C120.937 45.9609 122.491 43.9143 125.718 43.9143C129.097 43.9143 130.89 46.2441 130.89 49.9962C130.885 50.9229 130.834 51.8487 130.738 52.7701H128.515C128.604 52.0228 128.645 51.2704 128.64 50.5175C128.64 47.6503 127.605 46.1701 125.137 46.1701C122.062 46.1701 120.269 48.9439 120.269 52.8183V59.7208H117.844V44.1653Z" fill="white"/>
<path id="Vector_13" d="M146.945 52.4579H135.164C135.317 55.7659 137.266 57.8447 140.219 57.8447C142.746 57.8447 144.48 56.5221 144.695 54.4723H146.945C146.793 57.8447 144.148 59.9879 140.187 59.9879C135.652 59.9879 132.727 56.8986 132.727 52.0782C132.727 47.1 135.618 43.9175 140.125 43.9175C144.415 43.9175 146.942 46.6592 146.942 51.2898L146.945 52.4579ZM144.695 50.4402C144.695 47.6986 143.05 46.0606 140.187 46.0606C137.508 46.0606 135.714 47.6696 135.258 50.6301H144.695V50.4402Z" fill="white"/>
<path id="Vector_14" d="M28.1194 45.7349C37.6289 44.8633 44.6553 36.176 43.8133 26.3314C42.9712 16.4868 34.5797 9.21285 25.0702 10.0845C15.5608 10.9562 8.53439 19.6435 9.37639 29.488C10.2184 39.3326 18.6099 46.6066 28.1194 45.7349Z" fill="url(#paint0_linear_1608_402)"/>
<path id="Vector_15" d="M57.2553 42.505L42.7298 57.5424C41.9455 58.355 41.0141 58.9997 39.989 59.4395C38.9639 59.8794 37.8651 60.1058 36.7555 60.1058C35.6458 60.1058 34.547 59.8794 33.5219 59.4395C32.4968 58.9997 31.5655 58.355 30.7811 57.5424L26.333 52.9375L34.0729 44.9474C34.2843 44.7028 34.505 44.4615 34.7288 44.2298C37.6595 41.193 41.547 39.3481 45.6823 39.0314C49.8175 38.7148 53.925 39.9476 57.2553 42.505Z" fill="url(#paint1_linear_1608_402)"/>
<path id="Vector_16" d="M62.8007 35.0618C62.7872 35.1002 62.7717 35.1378 62.7541 35.1744C62.733 35.2314 62.7091 35.2873 62.6826 35.3418C62.6515 35.4061 62.6204 35.4801 62.5831 35.5574L62.4712 35.7923C62.2847 36.1591 62.0547 36.5871 61.7874 37.0344C61.7034 37.1824 61.6102 37.3369 61.5107 37.4913C61.4175 37.6458 61.318 37.8131 61.2185 37.9515L61.175 38.0223C61.0849 38.1542 60.9978 38.2894 60.9077 38.4181C60.8175 38.5468 60.7212 38.6852 60.6279 38.8203C60.5347 38.9555 60.4912 39.0038 60.4197 39.0939C60.3482 39.184 60.3233 39.229 60.2736 39.2934L60.1182 39.4865C60.0991 39.5165 60.0772 39.5445 60.0529 39.5701C59.9876 39.6538 59.9223 39.7342 59.8539 39.8147C59.7856 39.8951 59.7141 39.9788 59.6426 40.056C59.5276 40.188 59.4094 40.3199 59.2913 40.439C59.1701 40.5612 59.0613 40.6771 58.9525 40.7833L58.9121 40.8251C58.7608 40.9796 58.6054 41.1276 58.4458 41.2692L57.2678 42.4888C53.9374 39.9314 49.83 38.6986 45.6947 39.0152C41.5594 39.3319 37.6719 41.1768 34.7412 44.2136C34.5174 44.4453 34.2967 44.6866 34.0853 44.9312L26.333 52.9374L22.9759 49.4749L22.4599 48.9408C22.376 48.8507 22.2827 48.7573 22.1957 48.6672L21.6549 48.1073L21.1109 47.5377C20.7192 47.1323 20.3245 46.7204 19.9266 46.3117C19.6157 45.9899 19.3049 45.6681 19.0127 45.3656L17.9279 44.2426L17.2409 43.5282L16.7591 43.0197L15.4474 41.6618L14.9687 41.1662L14.7573 40.9474C14.6206 40.8058 14.4993 40.6835 14.3967 40.5741L14.2911 40.4679L14.2165 40.3875L14.1729 40.3392L14.1325 40.2974C14.0797 40.2362 14.0331 40.188 13.9958 40.1493L13.9647 40.114C13.952 40.0992 13.9385 40.0852 13.9243 40.0721L13.8994 40.0432C13.8713 40.0061 13.8401 39.9716 13.8062 39.9402C13.6632 39.7729 13.5295 39.6184 13.3958 39.435C13.2622 39.2515 13.1472 39.1132 13.0291 38.9523L13.3399 39.3449C13.399 39.4092 13.4549 39.4736 13.514 39.5347C13.573 39.5959 13.6321 39.6602 13.688 39.7246C13.9212 39.9724 14.1636 40.2105 14.4154 40.4293C14.4745 40.484 14.5397 40.5387 14.605 40.5902C14.9133 40.8529 15.2383 41.0937 15.5779 41.311C15.6463 41.3561 15.7147 41.3979 15.7831 41.4365C15.8484 41.4784 15.9168 41.517 15.9882 41.5556C16.0597 41.5942 16.2276 41.6875 16.3488 41.7487L16.5819 41.8549C16.8148 41.9624 17.0536 42.0558 17.2969 42.1348C17.4305 42.1799 17.5642 42.2185 17.701 42.2539L17.7849 42.2764L18.0305 42.3311L18.2574 42.3729C18.2978 42.3729 18.3351 42.389 18.3755 42.3923L18.59 42.4212L18.8324 42.4437C18.9847 42.4437 19.1433 42.4598 19.2956 42.4598C21.114 42.4598 23.0661 41.6714 25.0554 39.8115L34.0947 30.4794C34.306 30.2349 34.5267 29.9935 34.7505 29.7554C37.9931 26.4005 42.3899 24.5159 46.9743 24.5159C51.5587 24.5159 55.9555 26.4005 59.1981 29.7554C59.4716 30.0386 59.7296 30.3346 59.9814 30.6339C60.1648 30.8624 60.3451 31.0844 60.5129 31.3129C60.6808 31.5414 60.8486 31.7666 61.0009 31.9887C61.6741 32.9651 62.2757 33.9923 62.8007 35.0618Z" fill="url(#paint2_linear_1608_402)"/>
<path id="Vector_17" d="M64.2182 28.7707C64.2182 28.9123 64.2182 29.0571 64.1964 29.1955C64.1747 29.3338 64.1715 29.4818 64.1622 29.6267C64.1342 29.9131 64.1001 30.1962 64.0596 30.4794C64.041 30.6242 64.0192 30.7626 63.9975 30.9042C63.954 31.1874 63.898 31.4705 63.839 31.7505C63.7799 32.0305 63.7302 32.2493 63.6649 32.4938C63.5996 32.7384 63.5623 32.8896 63.5032 33.0859C63.4442 33.2822 63.3851 33.4817 63.323 33.678C63.2608 33.8743 63.1955 34.0513 63.1271 34.2412C63.0774 34.3763 63.0277 34.5115 62.9748 34.6466C62.922 34.7818 62.8629 34.9202 62.8007 35.0618C62.2701 33.9806 61.6612 32.9425 60.9792 31.9564C60.8269 31.7344 60.6684 31.5059 60.4912 31.2807C60.314 31.0554 60.1431 30.8302 59.9597 30.6017C59.7079 30.3024 59.4499 30.0064 59.1764 29.7232C55.9338 26.3683 51.537 24.4836 46.9526 24.4836C42.3682 24.4836 37.9714 26.3683 34.7288 29.7232C34.505 29.9613 34.2843 30.2027 34.0729 30.4472L25.0337 39.7792C23.0444 41.6392 21.0923 42.4276 19.2739 42.4276C19.1185 42.4276 18.963 42.4276 18.8107 42.4115L18.5683 42.389L18.3538 42.36C18.3134 42.36 18.2761 42.36 18.2357 42.3407L18.0088 42.2989L17.7632 42.2442L17.6793 42.2217C17.5425 42.1863 17.4088 42.1477 17.2752 42.1026C17.0318 42.0236 16.7931 41.9301 16.5602 41.8226L16.3271 41.7164C16.2059 41.6553 16.0847 41.5909 15.9665 41.5234C15.8484 41.4558 15.8267 41.4461 15.7614 41.4043C15.6961 41.3625 15.6246 41.3239 15.5562 41.2788C15.2164 41.0594 14.8914 40.8164 14.5833 40.5516C14.518 40.5001 14.4527 40.4454 14.3937 40.3907C14.1419 40.1718 13.8995 39.9337 13.6663 39.6859C13.6104 39.6216 13.5482 39.5604 13.4923 39.4961C13.4363 39.4317 13.3772 39.3706 13.3182 39.3062L13.0073 38.9136L12.9669 38.8654C12.883 38.7495 12.7991 38.6337 12.7183 38.5146C12.6374 38.3955 12.5566 38.2829 12.4789 38.1638C12.4012 38.0448 12.3484 37.974 12.2893 37.8742C11.9785 37.4076 11.708 36.9346 11.4625 36.4648L11.3599 36.2685C11.2076 35.9789 11.0708 35.686 10.9403 35.3964C10.8905 35.287 10.8408 35.1744 10.7942 35.0746C10.7724 35.0328 10.7569 34.991 10.7382 34.9491L10.617 34.6466C10.5704 34.534 10.5268 34.4149 10.4833 34.2959C10.4398 34.1768 10.4243 34.1414 10.3994 34.061C10.3745 33.9805 10.3279 33.8647 10.2937 33.7649C10.2595 33.6652 10.2129 33.5107 10.1725 33.3852C10.1321 33.2597 10.0948 33.131 10.0575 33.0055C9.98287 32.7513 9.91449 32.4938 9.85543 32.2396C9.82745 32.1366 9.80259 32.0337 9.78393 31.9178C9.74042 31.7312 9.70001 31.5445 9.66582 31.3611C9.63162 31.1777 9.59743 30.9911 9.56635 30.8044C9.5135 30.4826 9.46688 30.1254 9.43269 29.7908C9.41093 29.5784 9.39228 29.366 9.37984 29.1472C9.37984 29.0635 9.37984 28.9766 9.36119 28.893C9.34254 28.8093 9.36119 28.6548 9.34565 28.539C9.31895 27.8857 9.32829 27.2314 9.37363 26.5793C9.37363 26.5085 9.37363 26.4377 9.38917 26.3669C9.40471 26.2961 9.38917 26.2156 9.40782 26.1416C9.42336 25.9743 9.4389 25.8198 9.46066 25.6428C9.48242 25.4659 9.50418 25.2921 9.52594 25.1215C9.52493 25.1087 9.52493 25.0958 9.52594 25.0829C9.55391 24.9092 9.58189 24.7418 9.61297 24.5745C9.64406 24.4072 9.67203 24.2527 9.70933 24.0854C9.74663 23.918 9.76528 23.8215 9.79326 23.696C9.80793 23.6497 9.81936 23.6024 9.82745 23.5544C9.87719 23.3388 9.93625 23.1264 9.9922 22.9108C9.99149 22.9033 9.99149 22.8958 9.9922 22.8883C10.0513 22.6727 10.1165 22.4635 10.1787 22.2447C10.2129 22.1353 10.2502 22.0323 10.2875 21.9229C10.3061 21.8714 10.3217 21.8167 10.3434 21.7652C10.3593 21.7117 10.378 21.659 10.3994 21.6076C10.4336 21.5046 10.474 21.4016 10.5144 21.2858C10.5144 21.2343 10.5486 21.1892 10.5641 21.1442C10.5797 21.0991 10.6077 21.0315 10.6325 20.9801C10.6574 20.9286 10.6978 20.8224 10.7289 20.7451C10.76 20.6679 10.7942 20.5939 10.8284 20.5167C11.0908 19.914 11.3844 19.3264 11.708 18.7565C11.7889 18.6149 11.8759 18.4701 11.9598 18.3317L11.9971 18.2706C12.0759 18.144 12.1567 18.0185 12.2396 17.8941C12.4603 17.5723 12.7058 17.2151 12.9669 16.874C13.0571 16.7581 13.1441 16.6423 13.2374 16.5264C13.3306 16.4106 13.4208 16.3012 13.5202 16.1853C13.6197 16.0695 13.6539 16.0212 13.7285 15.9408C13.8031 15.8603 13.8528 15.7927 13.9181 15.7252C14.4049 15.1716 14.924 14.6493 15.4723 14.1612C15.5593 14.084 15.6495 14.0068 15.7365 13.936C15.8235 13.8652 15.9696 13.7365 16.0878 13.6432L16.4204 13.3825C16.5292 13.2988 16.6348 13.2216 16.7312 13.1444H16.7561L16.9861 12.9899C17.0172 12.9674 17.0483 12.9513 17.0762 12.9288L17.1042 12.9127C16.9519 13.0511 16.7934 13.1926 16.6628 13.3375C16.5882 13.4083 16.5167 13.4823 16.4452 13.5595C16.3737 13.6367 16.237 13.7783 16.1344 13.8813C16.0318 13.9843 15.9323 14.1033 15.8422 14.2192C15.7262 14.3972 15.6174 14.5613 15.5158 14.7115C15.4039 14.8595 15.2982 15.0108 15.205 15.162C15.0496 15.3937 14.8941 15.6222 14.7791 15.8571C14.7107 15.9762 14.6517 16.092 14.5926 16.2111C14.5336 16.3301 14.4745 16.4395 14.4248 16.5586C14.375 16.6777 14.2818 16.8804 14.2227 17.0349C14.1637 17.1893 14.1015 17.3567 14.0487 17.5079C14.0145 17.6109 13.9834 17.7171 13.9523 17.8297C13.9212 17.9423 13.8901 18.0453 13.8684 18.1515C13.8466 18.2577 13.8155 18.351 13.7969 18.4508C13.7627 18.6084 13.7316 18.7726 13.7098 18.9174C13.7083 18.9334 13.7083 18.9496 13.7098 18.9656C13.6912 19.0589 13.6819 19.1458 13.6725 19.2359C13.6632 19.326 13.6508 19.4161 13.6415 19.5062C13.6321 19.5963 13.6415 19.651 13.6228 19.7251C13.6228 19.9181 13.6042 20.1112 13.6042 20.3011C13.6042 20.4341 13.6042 20.5628 13.6042 20.6872C13.6042 20.7838 13.6042 20.8803 13.6042 20.9736C13.6042 21.0669 13.6042 21.083 13.6197 21.1345C13.6383 21.3372 13.6663 21.5368 13.7005 21.7363C13.7005 21.8071 13.7254 21.8779 13.7378 21.9487C13.844 22.5001 14.0033 23.0391 14.2134 23.5576C14.2445 23.6316 14.2787 23.7089 14.3129 23.7829C14.3471 23.8569 14.3844 23.947 14.4248 24.0307C14.49 24.169 14.5615 24.3074 14.6393 24.4393C14.7765 24.6954 14.9302 24.9415 15.0993 25.1762C15.233 25.3693 15.3759 25.5495 15.522 25.7265C15.6681 25.9035 15.8546 26.0998 16.0318 26.2671C16.1002 26.3347 16.1686 26.3958 16.237 26.457C16.3269 26.5407 16.4214 26.6191 16.5198 26.6919C16.5975 26.7563 16.6784 26.8206 16.7592 26.8753C16.84 26.93 16.9208 26.9912 17.0016 27.0459C17.0265 27.0459 17.0483 27.0781 17.0731 27.0877C17.1508 27.1392 17.2285 27.1907 17.3094 27.2357C17.3902 27.2808 17.4834 27.3355 17.5736 27.3805C17.5892 27.391 17.6058 27.3997 17.6233 27.4063C17.6917 27.4417 17.757 27.4739 17.8285 27.5028C17.9528 27.564 18.0834 27.6154 18.2139 27.6637C18.3445 27.712 18.3973 27.7313 18.4906 27.7603C18.5838 27.7892 18.6957 27.8214 18.8014 27.8471C18.9071 27.8729 18.9537 27.8858 19.0314 27.8986C19.162 27.9276 19.2987 27.9501 19.4324 27.9662C19.507 27.9662 19.5816 27.9823 19.6593 27.9855C21.0363 28.1014 22.5035 27.6637 23.8992 26.502L34.0729 15.9794C34.2843 15.7348 34.505 15.4935 34.7288 15.2586C36.334 13.5966 38.2397 12.2782 40.337 11.3788C42.4344 10.4793 44.6824 10.0164 46.9526 10.0164C49.2228 10.0164 51.4708 10.4793 53.5681 11.3788C55.6655 12.2782 57.5712 13.5966 59.1764 15.2586C59.2789 15.368 59.3846 15.4774 59.4872 15.5804L59.655 15.7734L59.7172 15.8442C59.8074 15.9408 59.8882 16.0341 59.969 16.1306C60.0933 16.2787 60.2177 16.4299 60.3358 16.5779C60.3358 16.594 60.3607 16.6069 60.3731 16.6262C60.4881 16.771 60.6 16.919 60.7119 17.0735L60.8456 17.2569C60.8891 17.318 60.9388 17.3792 60.9761 17.4435C61.1098 17.627 61.2372 17.8168 61.3553 18.0099C61.4735 18.203 61.5481 18.3092 61.6382 18.4604C61.7283 18.6117 61.8309 18.7822 61.9242 18.9495C62.0174 19.1169 62.092 19.252 62.1728 19.4065C62.1728 19.429 62.1977 19.4515 62.207 19.4741C62.2599 19.5803 62.3189 19.6864 62.3687 19.7959C62.4184 19.9053 62.465 19.9889 62.5117 20.0919C62.5202 20.1084 62.5275 20.1257 62.5334 20.1434C62.5863 20.2496 62.6329 20.3526 62.6795 20.4652C62.7572 20.6325 62.8318 20.8095 62.8971 20.9801C62.9624 21.1506 63.0339 21.3019 63.0929 21.4788C63.2079 21.8006 63.3136 22.0967 63.4038 22.412C63.4349 22.5086 63.4628 22.6116 63.4939 22.7081C63.525 22.8046 63.5685 22.9655 63.6027 23.0942C63.6035 23.1017 63.6035 23.1093 63.6027 23.1168C63.6027 23.1425 63.6089 23.165 63.6214 23.1843C63.6302 23.2012 63.6355 23.2199 63.6369 23.239C63.6835 23.4193 63.727 23.5962 63.7643 23.7764C63.7892 23.8762 63.811 23.9792 63.8327 24.0789C63.8669 24.2334 63.8949 24.4007 63.9229 24.5391C63.9508 24.6775 63.9695 24.7998 63.9913 24.9252C64.013 25.0507 64.0348 25.2084 64.0534 25.35C64.0721 25.4916 64.0907 25.6332 64.1094 25.778C64.1107 25.7973 64.1107 25.8166 64.1094 25.8359C64.1094 25.9582 64.1405 26.0805 64.1498 26.2028C64.1778 26.4731 64.1933 26.7595 64.2057 27.062C64.2057 27.1714 64.2057 27.2808 64.2057 27.3838V27.4031C64.2057 27.4835 64.2057 27.5672 64.2057 27.6508C64.243 28.0016 64.2399 28.3813 64.2182 28.7707Z" fill="url(#paint3_linear_1608_402)"/>
</g>
<defs>
<linearGradient id="paint0_linear_1608_402" x1="21.5712" y1="35.805" x2="42.5269" y2="5.07452" gradientUnits="userSpaceOnUse">
<stop stop-color="#6DC2C9"/>
<stop offset="0.06" stop-color="#64AEBC"/>
<stop offset="0.19" stop-color="#5386A2"/>
<stop offset="0.32" stop-color="#45648C"/>
<stop offset="0.46" stop-color="#3A4A7B"/>
<stop offset="0.6" stop-color="#32386F"/>
<stop offset="0.75" stop-color="#2E2D68"/>
<stop offset="0.91" stop-color="#2C2966"/>
</linearGradient>
<linearGradient id="paint1_linear_1608_402" x1="57.1061" y1="45.2982" x2="19.0107" y2="54.8385" gradientUnits="userSpaceOnUse">
<stop stop-color="#54ABB4"/>
<stop offset="0.75" stop-color="#2C2966"/>
</linearGradient>
<linearGradient id="paint2_linear_1608_402" x1="59.6053" y1="29.5205" x2="14.6495" y2="47.5791" gradientUnits="userSpaceOnUse">
<stop offset="0.09" stop-color="#6DC2C9"/>
<stop offset="0.86" stop-color="#2A2F70"/>
</linearGradient>
<linearGradient id="paint3_linear_1608_402" x1="59.8105" y1="17.199" x2="6.28775" y2="34.3097" gradientUnits="userSpaceOnUse">
<stop offset="0.01" stop-color="#C2E3E7" stop-opacity="0.8"/>
<stop offset="0.29" stop-color="#6DC2C9"/>
<stop offset="1" stop-color="#2C2966"/>
</linearGradient>
<clipPath id="clip0_1608_402">
<rect width="194.194" height="69.7391" fill="white" transform="translate(0.284668 0.64917)"/>
</clipPath>
</defs>
</svg>
